<svg
  xmlns="http://www.w3.org/2000/svg"
  width="24"
  height="24"
  viewBox="0 0 512 512"
  fill-rule="evenodd"
  clip-rule="evenodd"
  >
  <path d="M512,80.688C512,42.203,480.797,11,442.297,11c-34.594,0-63.234,25.219-68.688,58.281H138.391
    C132.938,36.219,104.297,11,69.703,11C31.203,11,0,42.203,0,80.688c0,34.109,24.484,62.438,56.828,68.484
    c-44,85.641-48.938,162.625-48.938,162.625C7.891,356.625,12.031,501,256,501s248.109-144.375,248.109-189.203
    c0,0-4.938-76.984-48.938-162.625C487.516,143.125,512,114.797,512,80.688z M103.266,86.031
    c-7.172,6.75-15.578,15.781-24.234,27.359c-2.969,0.859-6.094,1.328-9.328,1.328c-18.781,0-34.016-15.219-34.016-34.031
    c0-18.781,15.234-34.016,34.016-34.016c18.797,0,34.031,15.234,34.031,34.016C103.734,82.5,103.547,84.281,103.266,86.031z
    M256,457.859c-80.656,0-146.047-49.797-146.047-111.203S175.344,235.453,256,235.453s146.047,49.797,146.047,111.203
    S336.656,457.859,256,457.859z M432.969,113.391c-8.656-11.578-17.063-20.609-24.234-27.359c-0.281-1.75-0.469-3.531-0.469-5.344
    c0-18.781,15.234-34.016,34.031-34.016c18.781,0,34.016,15.234,34.016,34.016c0,18.813-15.234,34.031-34.016,34.031
    C439.063,114.719,435.938,114.25,432.969,113.391z">
    </path>
    <path d="M307.688,309.734l-14.781-30.969c-3.906-8.203-12.188-13.438-21.281-13.438H256h-15.625
    c-9.094,0-17.375,5.234-21.281,13.438l-14.781,30.969c-2.391,5.031-0.938,11.047,3.484,14.422l41.031,31.344l-41.266,41.266
    l10.563,10.547L256,369.438l37.875,37.875l10.563-10.547l-41.266-41.25l41.031-31.359
    C308.625,320.781,310.078,314.766,307.688,309.734z">
  </path>
</svg>
